<mxfile host="app.diagrams.net" modified="2022-04-07T10:47:56.441Z" agent="5.0 (Windows NT 10.0; Win64; x64) AppleWebKit/537.36 (KHTML, like Gecko) Chrome/99.0.4844.84 Safari/537.36" etag="eM59f8sbMMANjc9rYNFE" version="17.2.5" type="github" pages="4">
  <diagram id="mGimO7RwBJFTYOgxQyVY" name="ConceptualView">
    <mxGraphModel dx="1038" dy="481" grid="1" gridSize="10" guides="1" tooltips="1" connect="1" arrows="1" fold="1" page="1" pageScale="1" pageWidth="1100" pageHeight="850" math="0" shadow="0">
      <root>
        <mxCell id="0" />
        <mxCell id="1" parent="0" />
        <mxCell id="fcGiO9Whg9NWoGVZ0aJe-1" value="Data Ingestion/&lt;br&gt;Collection" style="whiteSpace=wrap;html=1;" parent="1" vertex="1">
          <mxGeometry x="189" y="80" width="81" height="260" as="geometry" />
        </mxCell>
        <mxCell id="fcGiO9Whg9NWoGVZ0aJe-2" value="Data Storage &amp;amp;Integration&lt;br&gt;&lt;i&gt;&lt;br&gt;(Store and make data available for processing)&lt;/i&gt;" style="whiteSpace=wrap;html=1;direction=south;" parent="1" vertex="1">
          <mxGeometry x="282" y="80" width="213" height="83" as="geometry" />
        </mxCell>
        <mxCell id="fcGiO9Whg9NWoGVZ0aJe-3" value="Data Processing&lt;br&gt;&lt;br&gt;&lt;i&gt;(Applying data validations, transformations, business logic)&lt;/i&gt;" style="whiteSpace=wrap;html=1;direction=south;" parent="1" vertex="1">
          <mxGeometry x="282" y="257" width="213" height="81" as="geometry" />
        </mxCell>
        <mxCell id="fcGiO9Whg9NWoGVZ0aJe-4" value="Data Pipeline" style="whiteSpace=wrap;html=1;direction=south;" parent="1" vertex="1">
          <mxGeometry x="190" y="355" width="401" height="35" as="geometry" />
        </mxCell>
        <mxCell id="fcGiO9Whg9NWoGVZ0aJe-5" value="Data Analysis&lt;br&gt;User Interface" style="whiteSpace=wrap;html=1;" parent="1" vertex="1">
          <mxGeometry x="510" y="80" width="82" height="260" as="geometry" />
        </mxCell>
        <mxCell id="fcGiO9Whg9NWoGVZ0aJe-6" value="Stream" style="shape=cylinder3;whiteSpace=wrap;html=1;boundedLbl=1;backgroundOutline=1;size=15;direction=north;" parent="1" vertex="1">
          <mxGeometry x="80" y="159" width="80" height="46" as="geometry" />
        </mxCell>
        <mxCell id="fcGiO9Whg9NWoGVZ0aJe-7" value="Batch" style="shape=cylinder3;whiteSpace=wrap;html=1;boundedLbl=1;backgroundOutline=1;size=15;direction=north;" parent="1" vertex="1">
          <mxGeometry x="81" y="246" width="80" height="46" as="geometry" />
        </mxCell>
        <mxCell id="fcGiO9Whg9NWoGVZ0aJe-8" value="Metadata Repository" style="whiteSpace=wrap;html=1;direction=south;" parent="1" vertex="1">
          <mxGeometry x="283" y="186" width="80" height="43" as="geometry" />
        </mxCell>
        <mxCell id="fcGiO9Whg9NWoGVZ0aJe-9" value="" style="shape=flexArrow;endArrow=classic;startArrow=classic;html=1;rounded=0;endSize=5;strokeWidth=1;startSize=5;" parent="1" edge="1">
          <mxGeometry width="100" height="100" relative="1" as="geometry">
            <mxPoint x="393" y="239" as="sourcePoint" />
            <mxPoint x="393" y="175" as="targetPoint" />
          </mxGeometry>
        </mxCell>
        <mxCell id="fcGiO9Whg9NWoGVZ0aJe-10" value="" style="shape=flexArrow;endArrow=classic;startArrow=classic;html=1;rounded=0;endSize=5;strokeWidth=1;startSize=5;" parent="1" edge="1">
          <mxGeometry width="100" height="100" relative="1" as="geometry">
            <mxPoint x="445" y="240" as="sourcePoint" />
            <mxPoint x="445" y="176" as="targetPoint" />
          </mxGeometry>
        </mxCell>
        <mxCell id="fcGiO9Whg9NWoGVZ0aJe-11" value="Data &lt;br&gt;consumers" style="sketch=0;outlineConnect=0;fontColor=#232F3E;gradientColor=none;strokeColor=#232F3E;fillColor=#ffffff;dashed=0;verticalLabelPosition=bottom;verticalAlign=top;align=center;html=1;fontSize=12;fontStyle=0;aspect=fixed;shape=mxgraph.aws4.resourceIcon;resIcon=mxgraph.aws4.users;shadow=0;" parent="1" vertex="1">
          <mxGeometry x="682" y="80" width="33" height="33" as="geometry" />
        </mxCell>
        <mxCell id="fcGiO9Whg9NWoGVZ0aJe-12" value="" style="sketch=0;pointerEvents=1;shadow=0;dashed=0;html=1;strokeColor=none;fillColor=#434445;aspect=fixed;labelPosition=center;verticalLabelPosition=bottom;verticalAlign=top;align=center;outlineConnect=0;shape=mxgraph.vvd.nsx_dashboard;" parent="1" vertex="1">
          <mxGeometry x="604" y="80" width="50" height="46.5" as="geometry" />
        </mxCell>
        <mxCell id="fcGiO9Whg9NWoGVZ0aJe-13" value="" style="shape=image;html=1;verticalAlign=top;verticalLabelPosition=bottom;labelBackgroundColor=#ffffff;imageAspect=0;aspect=fixed;image=https://cdn4.iconfinder.com/data/icons/iphone-calculator-shopping-report/128/Reports.png;shadow=0;sketch=1;" parent="1" vertex="1">
          <mxGeometry x="592" y="137" width="74" height="74" as="geometry" />
        </mxCell>
        <mxCell id="fcGiO9Whg9NWoGVZ0aJe-14" value="" style="shape=image;html=1;verticalAlign=top;verticalLabelPosition=bottom;labelBackgroundColor=#ffffff;imageAspect=0;aspect=fixed;image=https://cdn4.iconfinder.com/data/icons/app-custom-ui-1/48/Trends-128.png" parent="1" vertex="1">
          <mxGeometry x="605" y="221.5" width="50.5" height="50.5" as="geometry" />
        </mxCell>
        <mxCell id="fcGiO9Whg9NWoGVZ0aJe-15" value="" style="shape=image;html=1;verticalAlign=top;verticalLabelPosition=bottom;labelBackgroundColor=#ffffff;imageAspect=0;aspect=fixed;image=https://cdn4.iconfinder.com/data/icons/ionicons/512/icon-ios7-search-strong-128.png" parent="1" vertex="1">
          <mxGeometry x="603" y="284" width="52" height="52" as="geometry" />
        </mxCell>
        <mxCell id="fcGiO9Whg9NWoGVZ0aJe-16" value="Biz &lt;br&gt;Stakeholders" style="sketch=0;outlineConnect=0;fontColor=#232F3E;gradientColor=none;strokeColor=#232F3E;fillColor=#ffffff;dashed=0;verticalLabelPosition=bottom;verticalAlign=top;align=center;html=1;fontSize=12;fontStyle=0;aspect=fixed;shape=mxgraph.aws4.resourceIcon;resIcon=mxgraph.aws4.users;shadow=0;" parent="1" vertex="1">
          <mxGeometry x="682" y="150" width="33" height="33" as="geometry" />
        </mxCell>
        <mxCell id="fcGiO9Whg9NWoGVZ0aJe-17" value="BI Analyst" style="sketch=0;outlineConnect=0;fontColor=#232F3E;gradientColor=none;strokeColor=#232F3E;fillColor=#ffffff;dashed=0;verticalLabelPosition=bottom;verticalAlign=top;align=center;html=1;fontSize=12;fontStyle=0;aspect=fixed;shape=mxgraph.aws4.resourceIcon;resIcon=mxgraph.aws4.users;shadow=0;" parent="1" vertex="1">
          <mxGeometry x="683" y="221" width="33" height="33" as="geometry" />
        </mxCell>
        <mxCell id="fcGiO9Whg9NWoGVZ0aJe-18" value="Other apps&lt;br&gt;Services" style="sketch=0;outlineConnect=0;fontColor=#232F3E;gradientColor=none;strokeColor=#232F3E;fillColor=#ffffff;dashed=0;verticalLabelPosition=bottom;verticalAlign=top;align=center;html=1;fontSize=12;fontStyle=0;aspect=fixed;shape=mxgraph.aws4.resourceIcon;resIcon=mxgraph.aws4.users;shadow=0;" parent="1" vertex="1">
          <mxGeometry x="681" y="278" width="33" height="33" as="geometry" />
        </mxCell>
      </root>
    </mxGraphModel>
  </diagram>
  <diagram id="HMen_tP43Q7wtR5xiar7" name="Serverless-1">
    <mxGraphModel dx="1038" dy="481" grid="1" gridSize="10" guides="1" tooltips="1" connect="1" arrows="1" fold="1" page="1" pageScale="1" pageWidth="1100" pageHeight="850" math="0" shadow="0">
      <root>
        <mxCell id="8YmCFVgTwqG2fPgc1Tcj-0" />
        <mxCell id="8YmCFVgTwqG2fPgc1Tcj-1" parent="8YmCFVgTwqG2fPgc1Tcj-0" />
        <mxCell id="8YmCFVgTwqG2fPgc1Tcj-2" value="&lt;br&gt;&lt;br&gt;&lt;br&gt;&lt;br&gt;&lt;br&gt;&lt;br&gt;&lt;br&gt;&lt;br&gt;&lt;br&gt;&lt;br&gt;&lt;br&gt;&lt;br&gt;&lt;br&gt;&lt;br&gt;Delivery" style="whiteSpace=wrap;html=1;dashed=1;" parent="8YmCFVgTwqG2fPgc1Tcj-1" vertex="1">
          <mxGeometry x="734" y="265" width="141" height="229" as="geometry" />
        </mxCell>
        <mxCell id="8YmCFVgTwqG2fPgc1Tcj-3" value="&lt;br&gt;&lt;br&gt;&lt;br&gt;&lt;br&gt;&lt;br&gt;&lt;br&gt;&lt;br&gt;&lt;br&gt;&lt;br&gt;Analysis/Process Layer" style="whiteSpace=wrap;html=1;dashed=1;" parent="8YmCFVgTwqG2fPgc1Tcj-1" vertex="1">
          <mxGeometry x="318" y="514" width="400" height="154" as="geometry" />
        </mxCell>
        <mxCell id="8YmCFVgTwqG2fPgc1Tcj-4" value="" style="edgeStyle=orthogonalEdgeStyle;rounded=0;orthogonalLoop=1;jettySize=auto;html=1;" parent="8YmCFVgTwqG2fPgc1Tcj-1" source="8YmCFVgTwqG2fPgc1Tcj-5" target="8YmCFVgTwqG2fPgc1Tcj-24" edge="1">
          <mxGeometry relative="1" as="geometry" />
        </mxCell>
        <mxCell id="8YmCFVgTwqG2fPgc1Tcj-5" value="&lt;br&gt;&lt;br&gt;&lt;br&gt;&lt;br&gt;&lt;br&gt;&lt;br&gt;&lt;br&gt;&lt;br&gt;&lt;br&gt;&lt;br&gt;&lt;br&gt;&lt;br&gt;Pre-Processing" style="whiteSpace=wrap;html=1;dashed=1;" parent="8YmCFVgTwqG2fPgc1Tcj-1" vertex="1">
          <mxGeometry x="318" y="265" width="400" height="228" as="geometry" />
        </mxCell>
        <mxCell id="8YmCFVgTwqG2fPgc1Tcj-6" style="edgeStyle=orthogonalEdgeStyle;rounded=0;orthogonalLoop=1;jettySize=auto;html=1;" parent="8YmCFVgTwqG2fPgc1Tcj-1" source="8YmCFVgTwqG2fPgc1Tcj-7" target="8YmCFVgTwqG2fPgc1Tcj-18" edge="1">
          <mxGeometry relative="1" as="geometry" />
        </mxCell>
        <mxCell id="8YmCFVgTwqG2fPgc1Tcj-7" value="React/Angular&amp;nbsp;&lt;br&gt;App" style="sketch=0;pointerEvents=1;shadow=0;dashed=0;html=1;strokeColor=none;labelPosition=center;verticalLabelPosition=bottom;verticalAlign=top;align=center;fillColor=#505050;shape=mxgraph.mscae.intune.company_portal" parent="8YmCFVgTwqG2fPgc1Tcj-1" vertex="1">
          <mxGeometry x="72" y="176" width="50" height="38" as="geometry" />
        </mxCell>
        <mxCell id="8YmCFVgTwqG2fPgc1Tcj-8" style="edgeStyle=orthogonalEdgeStyle;rounded=0;orthogonalLoop=1;jettySize=auto;html=1;entryX=0.5;entryY=0;entryDx=0;entryDy=0;entryPerimeter=0;" parent="8YmCFVgTwqG2fPgc1Tcj-1" source="8YmCFVgTwqG2fPgc1Tcj-9" target="8YmCFVgTwqG2fPgc1Tcj-7" edge="1">
          <mxGeometry relative="1" as="geometry" />
        </mxCell>
        <mxCell id="8YmCFVgTwqG2fPgc1Tcj-9" value="Cloudfront" style="sketch=0;points=[[0,0,0],[0.25,0,0],[0.5,0,0],[0.75,0,0],[1,0,0],[0,1,0],[0.25,1,0],[0.5,1,0],[0.75,1,0],[1,1,0],[0,0.25,0],[0,0.5,0],[0,0.75,0],[1,0.25,0],[1,0.5,0],[1,0.75,0]];outlineConnect=0;fontColor=#232F3E;gradientColor=#945DF2;gradientDirection=north;fillColor=#5A30B5;strokeColor=#ffffff;dashed=0;verticalLabelPosition=bottom;verticalAlign=top;align=center;html=1;fontSize=12;fontStyle=0;aspect=fixed;shape=mxgraph.aws4.resourceIcon;resIcon=mxgraph.aws4.cloudfront;" parent="8YmCFVgTwqG2fPgc1Tcj-1" vertex="1">
          <mxGeometry x="165" y="100" width="50" height="50" as="geometry" />
        </mxCell>
        <mxCell id="8YmCFVgTwqG2fPgc1Tcj-10" value="Catalog Service" style="sketch=0;points=[[0,0,0],[0.25,0,0],[0.5,0,0],[0.75,0,0],[1,0,0],[0,1,0],[0.25,1,0],[0.5,1,0],[0.75,1,0],[1,1,0],[0,0.25,0],[0,0.5,0],[0,0.75,0],[1,0.25,0],[1,0.5,0],[1,0.75,0]];outlineConnect=0;fontColor=#232F3E;gradientColor=#F78E04;gradientDirection=north;fillColor=#D05C17;strokeColor=#ffffff;dashed=0;verticalLabelPosition=bottom;verticalAlign=top;align=center;html=1;fontSize=12;fontStyle=0;aspect=fixed;shape=mxgraph.aws4.resourceIcon;resIcon=mxgraph.aws4.lambda;" parent="8YmCFVgTwqG2fPgc1Tcj-1" vertex="1">
          <mxGeometry x="352" y="276" width="50" height="50" as="geometry" />
        </mxCell>
        <mxCell id="8YmCFVgTwqG2fPgc1Tcj-11" value="Validation &lt;br&gt;Service" style="sketch=0;points=[[0,0,0],[0.25,0,0],[0.5,0,0],[0.75,0,0],[1,0,0],[0,1,0],[0.25,1,0],[0.5,1,0],[0.75,1,0],[1,1,0],[0,0.25,0],[0,0.5,0],[0,0.75,0],[1,0.25,0],[1,0.5,0],[1,0.75,0]];outlineConnect=0;fontColor=#232F3E;gradientColor=#F78E04;gradientDirection=north;fillColor=#D05C17;strokeColor=#ffffff;dashed=0;verticalLabelPosition=bottom;verticalAlign=top;align=center;html=1;fontSize=12;fontStyle=0;aspect=fixed;shape=mxgraph.aws4.resourceIcon;resIcon=mxgraph.aws4.lambda;" parent="8YmCFVgTwqG2fPgc1Tcj-1" vertex="1">
          <mxGeometry x="444" y="271" width="50" height="50" as="geometry" />
        </mxCell>
        <mxCell id="8YmCFVgTwqG2fPgc1Tcj-12" value="" style="sketch=0;points=[[0,0,0],[0.25,0,0],[0.5,0,0],[0.75,0,0],[1,0,0],[0,1,0],[0.25,1,0],[0.5,1,0],[0.75,1,0],[1,1,0],[0,0.25,0],[0,0.5,0],[0,0.75,0],[1,0.25,0],[1,0.5,0],[1,0.75,0]];outlineConnect=0;fontColor=#232F3E;gradientColor=#4D72F3;gradientDirection=north;fillColor=#3334B9;strokeColor=#ffffff;dashed=0;verticalLabelPosition=bottom;verticalAlign=top;align=center;html=1;fontSize=12;fontStyle=0;aspect=fixed;shape=mxgraph.aws4.resourceIcon;resIcon=mxgraph.aws4.dynamodb;" parent="8YmCFVgTwqG2fPgc1Tcj-1" vertex="1">
          <mxGeometry x="354" y="360" width="50" height="50" as="geometry" />
        </mxCell>
        <mxCell id="8YmCFVgTwqG2fPgc1Tcj-13" value="" style="edgeStyle=orthogonalEdgeStyle;rounded=0;orthogonalLoop=1;jettySize=auto;html=1;" parent="8YmCFVgTwqG2fPgc1Tcj-1" source="8YmCFVgTwqG2fPgc1Tcj-14" target="8YmCFVgTwqG2fPgc1Tcj-10" edge="1">
          <mxGeometry relative="1" as="geometry" />
        </mxCell>
        <mxCell id="8YmCFVgTwqG2fPgc1Tcj-14" value="&lt;span style=&quot;color: rgb(0 , 0 , 0)&quot;&gt;Storage/&lt;/span&gt;&lt;br style=&quot;color: rgb(0 , 0 , 0)&quot;&gt;&lt;span style=&quot;color: rgb(0 , 0 , 0)&quot;&gt;Raw Ingestion&lt;br&gt;&lt;/span&gt;Staging Area" style="sketch=0;points=[[0,0,0],[0.25,0,0],[0.5,0,0],[0.75,0,0],[1,0,0],[0,1,0],[0.25,1,0],[0.5,1,0],[0.75,1,0],[1,1,0],[0,0.25,0],[0,0.5,0],[0,0.75,0],[1,0.25,0],[1,0.5,0],[1,0.75,0]];outlineConnect=0;fontColor=#232F3E;gradientColor=#60A337;gradientDirection=north;fillColor=#277116;strokeColor=#ffffff;dashed=0;verticalLabelPosition=bottom;verticalAlign=top;align=center;html=1;fontSize=12;fontStyle=0;aspect=fixed;shape=mxgraph.aws4.resourceIcon;resIcon=mxgraph.aws4.s3;" parent="8YmCFVgTwqG2fPgc1Tcj-1" vertex="1">
          <mxGeometry x="235" y="276" width="50" height="50" as="geometry" />
        </mxCell>
        <mxCell id="8YmCFVgTwqG2fPgc1Tcj-15" value="De Dupe&lt;br&gt;Service" style="sketch=0;points=[[0,0,0],[0.25,0,0],[0.5,0,0],[0.75,0,0],[1,0,0],[0,1,0],[0.25,1,0],[0.5,1,0],[0.75,1,0],[1,1,0],[0,0.25,0],[0,0.5,0],[0,0.75,0],[1,0.25,0],[1,0.5,0],[1,0.75,0]];outlineConnect=0;fontColor=#232F3E;gradientColor=#F78E04;gradientDirection=north;fillColor=#D05C17;strokeColor=#ffffff;dashed=0;verticalLabelPosition=bottom;verticalAlign=top;align=center;html=1;fontSize=12;fontStyle=0;aspect=fixed;shape=mxgraph.aws4.resourceIcon;resIcon=mxgraph.aws4.lambda;" parent="8YmCFVgTwqG2fPgc1Tcj-1" vertex="1">
          <mxGeometry x="533" y="272" width="50" height="50" as="geometry" />
        </mxCell>
        <mxCell id="8YmCFVgTwqG2fPgc1Tcj-16" value="Cognito" style="sketch=0;points=[[0,0,0],[0.25,0,0],[0.5,0,0],[0.75,0,0],[1,0,0],[0,1,0],[0.25,1,0],[0.5,1,0],[0.75,1,0],[1,1,0],[0,0.25,0],[0,0.5,0],[0,0.75,0],[1,0.25,0],[1,0.5,0],[1,0.75,0]];outlineConnect=0;fontColor=#232F3E;gradientColor=#F54749;gradientDirection=north;fillColor=#C7131F;strokeColor=#ffffff;dashed=0;verticalLabelPosition=bottom;verticalAlign=top;align=center;html=1;fontSize=12;fontStyle=0;aspect=fixed;shape=mxgraph.aws4.resourceIcon;resIcon=mxgraph.aws4.cognito;" parent="8YmCFVgTwqG2fPgc1Tcj-1" vertex="1">
          <mxGeometry x="163" y="22" width="47" height="47" as="geometry" />
        </mxCell>
        <mxCell id="8YmCFVgTwqG2fPgc1Tcj-17" value="" style="edgeStyle=orthogonalEdgeStyle;rounded=0;orthogonalLoop=1;jettySize=auto;html=1;entryX=0.47;entryY=0;entryDx=0;entryDy=0;entryPerimeter=0;" parent="8YmCFVgTwqG2fPgc1Tcj-1" source="8YmCFVgTwqG2fPgc1Tcj-18" target="8YmCFVgTwqG2fPgc1Tcj-5" edge="1">
          <mxGeometry relative="1" as="geometry" />
        </mxCell>
        <mxCell id="8YmCFVgTwqG2fPgc1Tcj-18" value="Pre Processing API&#39;s" style="sketch=0;points=[[0,0,0],[0.25,0,0],[0.5,0,0],[0.75,0,0],[1,0,0],[0,1,0],[0.25,1,0],[0.5,1,0],[0.75,1,0],[1,1,0],[0,0.25,0],[0,0.5,0],[0,0.75,0],[1,0.25,0],[1,0.5,0],[1,0.75,0]];outlineConnect=0;fontColor=#232F3E;gradientColor=#FF4F8B;gradientDirection=north;fillColor=#BC1356;strokeColor=#ffffff;dashed=0;verticalLabelPosition=bottom;verticalAlign=top;align=center;html=1;fontSize=12;fontStyle=0;aspect=fixed;shape=mxgraph.aws4.resourceIcon;resIcon=mxgraph.aws4.api_gateway;" parent="8YmCFVgTwqG2fPgc1Tcj-1" vertex="1">
          <mxGeometry x="481" y="170" width="50" height="50" as="geometry" />
        </mxCell>
        <mxCell id="8YmCFVgTwqG2fPgc1Tcj-19" value="&lt;font color=&quot;#000000&quot;&gt;Hosting&lt;/font&gt;" style="sketch=0;points=[[0,0,0],[0.25,0,0],[0.5,0,0],[0.75,0,0],[1,0,0],[0,1,0],[0.25,1,0],[0.5,1,0],[0.75,1,0],[1,1,0],[0,0.25,0],[0,0.5,0],[0,0.75,0],[1,0.25,0],[1,0.5,0],[1,0.75,0]];outlineConnect=0;fontColor=#232F3E;gradientColor=#60A337;gradientDirection=north;fillColor=#277116;strokeColor=#ffffff;dashed=0;verticalLabelPosition=bottom;verticalAlign=top;align=center;html=1;fontSize=12;fontStyle=0;aspect=fixed;shape=mxgraph.aws4.resourceIcon;resIcon=mxgraph.aws4.s3;" parent="8YmCFVgTwqG2fPgc1Tcj-1" vertex="1">
          <mxGeometry x="239" y="100" width="50" height="50" as="geometry" />
        </mxCell>
        <mxCell id="8YmCFVgTwqG2fPgc1Tcj-20" value="" style="sketch=0;points=[[0,0,0],[0.25,0,0],[0.5,0,0],[0.75,0,0],[1,0,0],[0,1,0],[0.25,1,0],[0.5,1,0],[0.75,1,0],[1,1,0],[0,0.25,0],[0,0.5,0],[0,0.75,0],[1,0.25,0],[1,0.5,0],[1,0.75,0]];outlineConnect=0;fontColor=#232F3E;gradientColor=#4D72F3;gradientDirection=north;fillColor=#3334B9;strokeColor=#ffffff;dashed=0;verticalLabelPosition=bottom;verticalAlign=top;align=center;html=1;fontSize=12;fontStyle=0;aspect=fixed;shape=mxgraph.aws4.resourceIcon;resIcon=mxgraph.aws4.dynamodb;" parent="8YmCFVgTwqG2fPgc1Tcj-1" vertex="1">
          <mxGeometry x="445" y="360" width="50" height="50" as="geometry" />
        </mxCell>
        <mxCell id="8YmCFVgTwqG2fPgc1Tcj-21" value="&lt;br&gt;&lt;br&gt;&lt;br&gt;&lt;br&gt;&lt;br&gt;&lt;br&gt;&lt;br&gt;&lt;br&gt;&lt;br&gt;&lt;br&gt;&lt;br&gt;&lt;br&gt;&lt;br&gt;&lt;br&gt;&lt;br&gt;Integration" style="whiteSpace=wrap;html=1;" parent="8YmCFVgTwqG2fPgc1Tcj-1" vertex="1">
          <mxGeometry x="117" y="268" width="80" height="230" as="geometry" />
        </mxCell>
        <mxCell id="8YmCFVgTwqG2fPgc1Tcj-22" value="File Upload" style="shape=image;html=1;verticalAlign=top;verticalLabelPosition=bottom;labelBackgroundColor=#ffffff;imageAspect=0;aspect=fixed;image=https://cdn4.iconfinder.com/data/icons/Primo_Icons/PNG/128x128/file_upload.png" parent="8YmCFVgTwqG2fPgc1Tcj-1" vertex="1">
          <mxGeometry x="141" y="275" width="36" height="36" as="geometry" />
        </mxCell>
        <mxCell id="8YmCFVgTwqG2fPgc1Tcj-23" value="" style="edgeStyle=orthogonalEdgeStyle;rounded=0;orthogonalLoop=1;jettySize=auto;html=1;" parent="8YmCFVgTwqG2fPgc1Tcj-1" source="8YmCFVgTwqG2fPgc1Tcj-24" target="8YmCFVgTwqG2fPgc1Tcj-31" edge="1">
          <mxGeometry relative="1" as="geometry" />
        </mxCell>
        <mxCell id="8YmCFVgTwqG2fPgc1Tcj-24" value="&lt;font color=&quot;#000000&quot;&gt;Cleaned&lt;br&gt;Transformed&amp;nbsp;&lt;br&gt;Bucket&lt;br&gt;&lt;/font&gt;" style="sketch=0;points=[[0,0,0],[0.25,0,0],[0.5,0,0],[0.75,0,0],[1,0,0],[0,1,0],[0.25,1,0],[0.5,1,0],[0.75,1,0],[1,1,0],[0,0.25,0],[0,0.5,0],[0,0.75,0],[1,0.25,0],[1,0.5,0],[1,0.75,0]];outlineConnect=0;fontColor=#232F3E;gradientColor=#60A337;gradientDirection=north;fillColor=#277116;strokeColor=#ffffff;dashed=0;verticalLabelPosition=bottom;verticalAlign=top;align=center;html=1;fontSize=12;fontStyle=0;aspect=fixed;shape=mxgraph.aws4.resourceIcon;resIcon=mxgraph.aws4.s3;" parent="8YmCFVgTwqG2fPgc1Tcj-1" vertex="1">
          <mxGeometry x="493" y="539" width="50" height="50" as="geometry" />
        </mxCell>
        <mxCell id="8YmCFVgTwqG2fPgc1Tcj-25" value="&lt;font color=&quot;#000000&quot;&gt;Intermediate &lt;br&gt;State&lt;/font&gt;" style="sketch=0;points=[[0,0,0],[0.25,0,0],[0.5,0,0],[0.75,0,0],[1,0,0],[0,1,0],[0.25,1,0],[0.5,1,0],[0.75,1,0],[1,1,0],[0,0.25,0],[0,0.5,0],[0,0.75,0],[1,0.25,0],[1,0.5,0],[1,0.75,0]];outlineConnect=0;fontColor=#232F3E;gradientColor=#60A337;gradientDirection=north;fillColor=#277116;strokeColor=#ffffff;dashed=0;verticalLabelPosition=bottom;verticalAlign=top;align=center;html=1;fontSize=12;fontStyle=0;aspect=fixed;shape=mxgraph.aws4.resourceIcon;resIcon=mxgraph.aws4.s3;" parent="8YmCFVgTwqG2fPgc1Tcj-1" vertex="1">
          <mxGeometry x="650" y="375" width="50" height="50" as="geometry" />
        </mxCell>
        <mxCell id="8YmCFVgTwqG2fPgc1Tcj-26" value="" style="sketch=0;outlineConnect=0;fontColor=#232F3E;gradientColor=none;fillColor=#067F68;strokeColor=none;dashed=0;verticalLabelPosition=bottom;verticalAlign=top;align=center;html=1;fontSize=12;fontStyle=0;aspect=fixed;shape=mxgraph.aws4.transfer_for_ftp_resource;" parent="8YmCFVgTwqG2fPgc1Tcj-1" vertex="1">
          <mxGeometry x="132" y="332" width="50" height="51.32" as="geometry" />
        </mxCell>
        <mxCell id="8YmCFVgTwqG2fPgc1Tcj-27" value="" style="sketch=0;pointerEvents=1;shadow=0;dashed=0;html=1;strokeColor=none;fillColor=#DF8C42;labelPosition=center;verticalLabelPosition=bottom;verticalAlign=top;align=center;outlineConnect=0;shape=mxgraph.veeam2.restful_api;" parent="8YmCFVgTwqG2fPgc1Tcj-1" vertex="1">
          <mxGeometry x="140" y="396" width="34" height="34" as="geometry" />
        </mxCell>
        <mxCell id="8YmCFVgTwqG2fPgc1Tcj-28" value="Cleaning" style="sketch=0;points=[[0,0,0],[0.25,0,0],[0.5,0,0],[0.75,0,0],[1,0,0],[0,1,0],[0.25,1,0],[0.5,1,0],[0.75,1,0],[1,1,0],[0,0.25,0],[0,0.5,0],[0,0.75,0],[1,0.25,0],[1,0.5,0],[1,0.75,0]];outlineConnect=0;fontColor=#232F3E;gradientColor=#F78E04;gradientDirection=north;fillColor=#D05C17;strokeColor=#ffffff;dashed=0;verticalLabelPosition=bottom;verticalAlign=top;align=center;html=1;fontSize=12;fontStyle=0;aspect=fixed;shape=mxgraph.aws4.resourceIcon;resIcon=mxgraph.aws4.lambda;" parent="8YmCFVgTwqG2fPgc1Tcj-1" vertex="1">
          <mxGeometry x="619" y="276" width="50" height="50" as="geometry" />
        </mxCell>
        <mxCell id="8YmCFVgTwqG2fPgc1Tcj-29" value="" style="shape=datastore;whiteSpace=wrap;html=1;dashed=1;" parent="8YmCFVgTwqG2fPgc1Tcj-1" vertex="1">
          <mxGeometry x="136" y="436" width="42" height="40" as="geometry" />
        </mxCell>
        <mxCell id="8YmCFVgTwqG2fPgc1Tcj-30" value="" style="edgeStyle=orthogonalEdgeStyle;rounded=0;orthogonalLoop=1;jettySize=auto;html=1;" parent="8YmCFVgTwqG2fPgc1Tcj-1" source="8YmCFVgTwqG2fPgc1Tcj-31" target="8YmCFVgTwqG2fPgc1Tcj-32" edge="1">
          <mxGeometry relative="1" as="geometry" />
        </mxCell>
        <mxCell id="8YmCFVgTwqG2fPgc1Tcj-31" value="AWS Batch&lt;br&gt;Analysis&lt;br&gt;(e.g. RFM)" style="sketch=0;points=[[0,0,0],[0.25,0,0],[0.5,0,0],[0.75,0,0],[1,0,0],[0,1,0],[0.25,1,0],[0.5,1,0],[0.75,1,0],[1,1,0],[0,0.25,0],[0,0.5,0],[0,0.75,0],[1,0.25,0],[1,0.5,0],[1,0.75,0]];outlineConnect=0;fontColor=#232F3E;gradientColor=#F78E04;gradientDirection=north;fillColor=#D05C17;strokeColor=#ffffff;dashed=0;verticalLabelPosition=bottom;verticalAlign=top;align=center;html=1;fontSize=12;fontStyle=0;aspect=fixed;shape=mxgraph.aws4.resourceIcon;resIcon=mxgraph.aws4.batch;" parent="8YmCFVgTwqG2fPgc1Tcj-1" vertex="1">
          <mxGeometry x="624" y="534" width="60" height="60" as="geometry" />
        </mxCell>
        <mxCell id="8YmCFVgTwqG2fPgc1Tcj-32" value="&lt;font color=&quot;#000000&quot;&gt;Segmentation&amp;nbsp;Output&lt;br&gt;&lt;/font&gt;" style="sketch=0;points=[[0,0,0],[0.25,0,0],[0.5,0,0],[0.75,0,0],[1,0,0],[0,1,0],[0.25,1,0],[0.5,1,0],[0.75,1,0],[1,1,0],[0,0.25,0],[0,0.5,0],[0,0.75,0],[1,0.25,0],[1,0.5,0],[1,0.75,0]];outlineConnect=0;fontColor=#232F3E;gradientColor=#60A337;gradientDirection=north;fillColor=#277116;strokeColor=#ffffff;dashed=0;verticalLabelPosition=bottom;verticalAlign=top;align=center;html=1;fontSize=12;fontStyle=0;aspect=fixed;shape=mxgraph.aws4.resourceIcon;resIcon=mxgraph.aws4.s3;" parent="8YmCFVgTwqG2fPgc1Tcj-1" vertex="1">
          <mxGeometry x="772" y="539" width="50" height="50" as="geometry" />
        </mxCell>
        <mxCell id="8YmCFVgTwqG2fPgc1Tcj-33" value="Analysis Output &lt;br&gt;API" style="sketch=0;points=[[0,0,0],[0.25,0,0],[0.5,0,0],[0.75,0,0],[1,0,0],[0,1,0],[0.25,1,0],[0.5,1,0],[0.75,1,0],[1,1,0],[0,0.25,0],[0,0.5,0],[0,0.75,0],[1,0.25,0],[1,0.5,0],[1,0.75,0]];outlineConnect=0;fontColor=#232F3E;gradientColor=#FF4F8B;gradientDirection=north;fillColor=#BC1356;strokeColor=#ffffff;dashed=0;verticalLabelPosition=bottom;verticalAlign=top;align=center;html=1;fontSize=12;fontStyle=0;aspect=fixed;shape=mxgraph.aws4.resourceIcon;resIcon=mxgraph.aws4.api_gateway;" parent="8YmCFVgTwqG2fPgc1Tcj-1" vertex="1">
          <mxGeometry x="899" y="269" width="50" height="50" as="geometry" />
        </mxCell>
        <mxCell id="8YmCFVgTwqG2fPgc1Tcj-34" style="edgeStyle=orthogonalEdgeStyle;rounded=0;orthogonalLoop=1;jettySize=auto;html=1;entryX=0.5;entryY=0;entryDx=0;entryDy=0;entryPerimeter=0;" parent="8YmCFVgTwqG2fPgc1Tcj-1" source="8YmCFVgTwqG2fPgc1Tcj-36" target="8YmCFVgTwqG2fPgc1Tcj-32" edge="1">
          <mxGeometry relative="1" as="geometry" />
        </mxCell>
        <mxCell id="8YmCFVgTwqG2fPgc1Tcj-35" value="" style="edgeStyle=orthogonalEdgeStyle;rounded=0;orthogonalLoop=1;jettySize=auto;html=1;" parent="8YmCFVgTwqG2fPgc1Tcj-1" source="8YmCFVgTwqG2fPgc1Tcj-36" target="8YmCFVgTwqG2fPgc1Tcj-33" edge="1">
          <mxGeometry relative="1" as="geometry" />
        </mxCell>
        <mxCell id="8YmCFVgTwqG2fPgc1Tcj-36" value="Segmentation&lt;br&gt;Service" style="sketch=0;points=[[0,0,0],[0.25,0,0],[0.5,0,0],[0.75,0,0],[1,0,0],[0,1,0],[0.25,1,0],[0.5,1,0],[0.75,1,0],[1,1,0],[0,0.25,0],[0,0.5,0],[0,0.75,0],[1,0.25,0],[1,0.5,0],[1,0.75,0]];outlineConnect=0;fontColor=#232F3E;gradientColor=#F78E04;gradientDirection=north;fillColor=#D05C17;strokeColor=#ffffff;dashed=0;verticalLabelPosition=bottom;verticalAlign=top;align=center;html=1;fontSize=12;fontStyle=0;aspect=fixed;shape=mxgraph.aws4.resourceIcon;resIcon=mxgraph.aws4.lambda;" parent="8YmCFVgTwqG2fPgc1Tcj-1" vertex="1">
          <mxGeometry x="772" y="269" width="50" height="50" as="geometry" />
        </mxCell>
        <mxCell id="8YmCFVgTwqG2fPgc1Tcj-37" value="Orchestrator" style="sketch=0;points=[[0,0,0],[0.25,0,0],[0.5,0,0],[0.75,0,0],[1,0,0],[0,1,0],[0.25,1,0],[0.5,1,0],[0.75,1,0],[1,1,0],[0,0.25,0],[0,0.5,0],[0,0.75,0],[1,0.25,0],[1,0.5,0],[1,0.75,0]];outlineConnect=0;fontColor=#232F3E;gradientColor=#FF4F8B;gradientDirection=north;fillColor=#BC1356;strokeColor=#ffffff;dashed=0;verticalLabelPosition=bottom;verticalAlign=top;align=center;html=1;fontSize=12;fontStyle=0;aspect=fixed;shape=mxgraph.aws4.resourceIcon;resIcon=mxgraph.aws4.step_functions;" parent="8YmCFVgTwqG2fPgc1Tcj-1" vertex="1">
          <mxGeometry x="680" y="248" width="50" height="50" as="geometry" />
        </mxCell>
      </root>
    </mxGraphModel>
  </diagram>
  <diagram id="no3qhhJnUd4cXwwQFTzV" name="Serverless-2">
    <mxGraphModel dx="1038" dy="481" grid="1" gridSize="10" guides="1" tooltips="1" connect="1" arrows="1" fold="1" page="1" pageScale="1" pageWidth="1100" pageHeight="850" math="0" shadow="0">
      <root>
        <mxCell id="RnOvtaYWMJXEQZg84aH6-0" />
        <mxCell id="RnOvtaYWMJXEQZg84aH6-1" parent="RnOvtaYWMJXEQZg84aH6-0" />
        <mxCell id="RnOvtaYWMJXEQZg84aH6-2" value="&lt;br&gt;&lt;br&gt;&lt;br&gt;&lt;br&gt;&lt;br&gt;&lt;br&gt;&lt;br&gt;&lt;br&gt;&lt;br&gt;&lt;br&gt;&lt;br&gt;&lt;br&gt;Pre-Processing" style="whiteSpace=wrap;html=1;dashed=1;" parent="RnOvtaYWMJXEQZg84aH6-1" vertex="1">
          <mxGeometry x="318" y="265" width="400" height="228" as="geometry" />
        </mxCell>
        <mxCell id="RnOvtaYWMJXEQZg84aH6-3" value="&lt;br&gt;&lt;br&gt;&lt;br&gt;&lt;br&gt;&lt;br&gt;&lt;br&gt;&lt;br&gt;&lt;br&gt;&lt;br&gt;&lt;br&gt;&lt;br&gt;&lt;br&gt;&lt;br&gt;&lt;br&gt;Delivery" style="whiteSpace=wrap;html=1;dashed=1;" parent="RnOvtaYWMJXEQZg84aH6-1" vertex="1">
          <mxGeometry x="734" y="265" width="141" height="229" as="geometry" />
        </mxCell>
        <mxCell id="RnOvtaYWMJXEQZg84aH6-4" value="&lt;br&gt;&lt;br&gt;&lt;br&gt;&lt;br&gt;&lt;br&gt;&lt;br&gt;&lt;br&gt;&lt;br&gt;&lt;br&gt;Analysis/Process Layer" style="whiteSpace=wrap;html=1;dashed=1;" parent="RnOvtaYWMJXEQZg84aH6-1" vertex="1">
          <mxGeometry x="318" y="514" width="400" height="154" as="geometry" />
        </mxCell>
        <mxCell id="RnOvtaYWMJXEQZg84aH6-5" value="" style="edgeStyle=orthogonalEdgeStyle;rounded=0;orthogonalLoop=1;jettySize=auto;html=1;" parent="RnOvtaYWMJXEQZg84aH6-1" source="RnOvtaYWMJXEQZg84aH6-2" target="RnOvtaYWMJXEQZg84aH6-21" edge="1">
          <mxGeometry relative="1" as="geometry" />
        </mxCell>
        <mxCell id="RnOvtaYWMJXEQZg84aH6-6" style="edgeStyle=orthogonalEdgeStyle;rounded=0;orthogonalLoop=1;jettySize=auto;html=1;" parent="RnOvtaYWMJXEQZg84aH6-1" source="RnOvtaYWMJXEQZg84aH6-7" target="RnOvtaYWMJXEQZg84aH6-15" edge="1">
          <mxGeometry relative="1" as="geometry" />
        </mxCell>
        <mxCell id="RnOvtaYWMJXEQZg84aH6-7" value="React/Angular&amp;nbsp;&lt;br&gt;App" style="sketch=0;pointerEvents=1;shadow=0;dashed=0;html=1;strokeColor=none;labelPosition=center;verticalLabelPosition=bottom;verticalAlign=top;align=center;fillColor=#505050;shape=mxgraph.mscae.intune.company_portal" parent="RnOvtaYWMJXEQZg84aH6-1" vertex="1">
          <mxGeometry x="72" y="176" width="50" height="38" as="geometry" />
        </mxCell>
        <mxCell id="RnOvtaYWMJXEQZg84aH6-8" style="edgeStyle=orthogonalEdgeStyle;rounded=0;orthogonalLoop=1;jettySize=auto;html=1;entryX=0.5;entryY=0;entryDx=0;entryDy=0;entryPerimeter=0;" parent="RnOvtaYWMJXEQZg84aH6-1" source="RnOvtaYWMJXEQZg84aH6-9" target="RnOvtaYWMJXEQZg84aH6-7" edge="1">
          <mxGeometry relative="1" as="geometry" />
        </mxCell>
        <mxCell id="RnOvtaYWMJXEQZg84aH6-9" value="Cloudfront" style="sketch=0;points=[[0,0,0],[0.25,0,0],[0.5,0,0],[0.75,0,0],[1,0,0],[0,1,0],[0.25,1,0],[0.5,1,0],[0.75,1,0],[1,1,0],[0,0.25,0],[0,0.5,0],[0,0.75,0],[1,0.25,0],[1,0.5,0],[1,0.75,0]];outlineConnect=0;fontColor=#232F3E;gradientColor=#945DF2;gradientDirection=north;fillColor=#5A30B5;strokeColor=#ffffff;dashed=0;verticalLabelPosition=bottom;verticalAlign=top;align=center;html=1;fontSize=12;fontStyle=0;aspect=fixed;shape=mxgraph.aws4.resourceIcon;resIcon=mxgraph.aws4.cloudfront;" parent="RnOvtaYWMJXEQZg84aH6-1" vertex="1">
          <mxGeometry x="165" y="100" width="50" height="50" as="geometry" />
        </mxCell>
        <mxCell id="RnOvtaYWMJXEQZg84aH6-10" value="" style="sketch=0;points=[[0,0,0],[0.25,0,0],[0.5,0,0],[0.75,0,0],[1,0,0],[0,1,0],[0.25,1,0],[0.5,1,0],[0.75,1,0],[1,1,0],[0,0.25,0],[0,0.5,0],[0,0.75,0],[1,0.25,0],[1,0.5,0],[1,0.75,0]];outlineConnect=0;fontColor=#232F3E;gradientColor=#4D72F3;gradientDirection=north;fillColor=#3334B9;strokeColor=#ffffff;dashed=0;verticalLabelPosition=bottom;verticalAlign=top;align=center;html=1;fontSize=12;fontStyle=0;aspect=fixed;shape=mxgraph.aws4.resourceIcon;resIcon=mxgraph.aws4.dynamodb;" parent="RnOvtaYWMJXEQZg84aH6-1" vertex="1">
          <mxGeometry x="354" y="360" width="50" height="50" as="geometry" />
        </mxCell>
        <mxCell id="RnOvtaYWMJXEQZg84aH6-11" value="" style="edgeStyle=orthogonalEdgeStyle;rounded=0;orthogonalLoop=1;jettySize=auto;html=1;" parent="RnOvtaYWMJXEQZg84aH6-1" source="RnOvtaYWMJXEQZg84aH6-12" edge="1">
          <mxGeometry relative="1" as="geometry">
            <mxPoint x="352" y="301" as="targetPoint" />
          </mxGeometry>
        </mxCell>
        <mxCell id="RnOvtaYWMJXEQZg84aH6-12" value="&lt;span style=&quot;color: rgb(0 , 0 , 0)&quot;&gt;Storage/&lt;/span&gt;&lt;br style=&quot;color: rgb(0 , 0 , 0)&quot;&gt;&lt;span style=&quot;color: rgb(0 , 0 , 0)&quot;&gt;Raw Ingestion&lt;br&gt;&lt;/span&gt;Staging Area" style="sketch=0;points=[[0,0,0],[0.25,0,0],[0.5,0,0],[0.75,0,0],[1,0,0],[0,1,0],[0.25,1,0],[0.5,1,0],[0.75,1,0],[1,1,0],[0,0.25,0],[0,0.5,0],[0,0.75,0],[1,0.25,0],[1,0.5,0],[1,0.75,0]];outlineConnect=0;fontColor=#232F3E;gradientColor=#60A337;gradientDirection=north;fillColor=#277116;strokeColor=#ffffff;dashed=0;verticalLabelPosition=bottom;verticalAlign=top;align=center;html=1;fontSize=12;fontStyle=0;aspect=fixed;shape=mxgraph.aws4.resourceIcon;resIcon=mxgraph.aws4.s3;" parent="RnOvtaYWMJXEQZg84aH6-1" vertex="1">
          <mxGeometry x="235" y="276" width="50" height="50" as="geometry" />
        </mxCell>
        <mxCell id="RnOvtaYWMJXEQZg84aH6-13" value="Cognito" style="sketch=0;points=[[0,0,0],[0.25,0,0],[0.5,0,0],[0.75,0,0],[1,0,0],[0,1,0],[0.25,1,0],[0.5,1,0],[0.75,1,0],[1,1,0],[0,0.25,0],[0,0.5,0],[0,0.75,0],[1,0.25,0],[1,0.5,0],[1,0.75,0]];outlineConnect=0;fontColor=#232F3E;gradientColor=#F54749;gradientDirection=north;fillColor=#C7131F;strokeColor=#ffffff;dashed=0;verticalLabelPosition=bottom;verticalAlign=top;align=center;html=1;fontSize=12;fontStyle=0;aspect=fixed;shape=mxgraph.aws4.resourceIcon;resIcon=mxgraph.aws4.cognito;" parent="RnOvtaYWMJXEQZg84aH6-1" vertex="1">
          <mxGeometry x="163" y="22" width="47" height="47" as="geometry" />
        </mxCell>
        <mxCell id="RnOvtaYWMJXEQZg84aH6-14" value="" style="edgeStyle=orthogonalEdgeStyle;rounded=0;orthogonalLoop=1;jettySize=auto;html=1;entryX=0.47;entryY=0;entryDx=0;entryDy=0;entryPerimeter=0;" parent="RnOvtaYWMJXEQZg84aH6-1" source="RnOvtaYWMJXEQZg84aH6-15" target="RnOvtaYWMJXEQZg84aH6-2" edge="1">
          <mxGeometry relative="1" as="geometry" />
        </mxCell>
        <mxCell id="RnOvtaYWMJXEQZg84aH6-15" value="Pre Processing API&#39;s" style="sketch=0;points=[[0,0,0],[0.25,0,0],[0.5,0,0],[0.75,0,0],[1,0,0],[0,1,0],[0.25,1,0],[0.5,1,0],[0.75,1,0],[1,1,0],[0,0.25,0],[0,0.5,0],[0,0.75,0],[1,0.25,0],[1,0.5,0],[1,0.75,0]];outlineConnect=0;fontColor=#232F3E;gradientColor=#FF4F8B;gradientDirection=north;fillColor=#BC1356;strokeColor=#ffffff;dashed=0;verticalLabelPosition=bottom;verticalAlign=top;align=center;html=1;fontSize=12;fontStyle=0;aspect=fixed;shape=mxgraph.aws4.resourceIcon;resIcon=mxgraph.aws4.api_gateway;" parent="RnOvtaYWMJXEQZg84aH6-1" vertex="1">
          <mxGeometry x="481" y="170" width="50" height="50" as="geometry" />
        </mxCell>
        <mxCell id="RnOvtaYWMJXEQZg84aH6-16" value="&lt;font color=&quot;#000000&quot;&gt;Hosting&lt;/font&gt;" style="sketch=0;points=[[0,0,0],[0.25,0,0],[0.5,0,0],[0.75,0,0],[1,0,0],[0,1,0],[0.25,1,0],[0.5,1,0],[0.75,1,0],[1,1,0],[0,0.25,0],[0,0.5,0],[0,0.75,0],[1,0.25,0],[1,0.5,0],[1,0.75,0]];outlineConnect=0;fontColor=#232F3E;gradientColor=#60A337;gradientDirection=north;fillColor=#277116;strokeColor=#ffffff;dashed=0;verticalLabelPosition=bottom;verticalAlign=top;align=center;html=1;fontSize=12;fontStyle=0;aspect=fixed;shape=mxgraph.aws4.resourceIcon;resIcon=mxgraph.aws4.s3;" parent="RnOvtaYWMJXEQZg84aH6-1" vertex="1">
          <mxGeometry x="239" y="100" width="50" height="50" as="geometry" />
        </mxCell>
        <mxCell id="RnOvtaYWMJXEQZg84aH6-17" value="" style="sketch=0;points=[[0,0,0],[0.25,0,0],[0.5,0,0],[0.75,0,0],[1,0,0],[0,1,0],[0.25,1,0],[0.5,1,0],[0.75,1,0],[1,1,0],[0,0.25,0],[0,0.5,0],[0,0.75,0],[1,0.25,0],[1,0.5,0],[1,0.75,0]];outlineConnect=0;fontColor=#232F3E;gradientColor=#4D72F3;gradientDirection=north;fillColor=#3334B9;strokeColor=#ffffff;dashed=0;verticalLabelPosition=bottom;verticalAlign=top;align=center;html=1;fontSize=12;fontStyle=0;aspect=fixed;shape=mxgraph.aws4.resourceIcon;resIcon=mxgraph.aws4.dynamodb;" parent="RnOvtaYWMJXEQZg84aH6-1" vertex="1">
          <mxGeometry x="445" y="360" width="50" height="50" as="geometry" />
        </mxCell>
        <mxCell id="RnOvtaYWMJXEQZg84aH6-18" value="&lt;br&gt;&lt;br&gt;&lt;br&gt;&lt;br&gt;&lt;br&gt;&lt;br&gt;&lt;br&gt;&lt;br&gt;&lt;br&gt;&lt;br&gt;&lt;br&gt;&lt;br&gt;&lt;br&gt;&lt;br&gt;&lt;br&gt;Integration" style="whiteSpace=wrap;html=1;" parent="RnOvtaYWMJXEQZg84aH6-1" vertex="1">
          <mxGeometry x="117" y="268" width="80" height="230" as="geometry" />
        </mxCell>
        <mxCell id="RnOvtaYWMJXEQZg84aH6-19" value="File Upload" style="shape=image;html=1;verticalAlign=top;verticalLabelPosition=bottom;labelBackgroundColor=#ffffff;imageAspect=0;aspect=fixed;image=https://cdn4.iconfinder.com/data/icons/Primo_Icons/PNG/128x128/file_upload.png" parent="RnOvtaYWMJXEQZg84aH6-1" vertex="1">
          <mxGeometry x="141" y="275" width="36" height="36" as="geometry" />
        </mxCell>
        <mxCell id="RnOvtaYWMJXEQZg84aH6-20" value="" style="edgeStyle=orthogonalEdgeStyle;rounded=0;orthogonalLoop=1;jettySize=auto;html=1;" parent="RnOvtaYWMJXEQZg84aH6-1" source="RnOvtaYWMJXEQZg84aH6-21" edge="1">
          <mxGeometry relative="1" as="geometry">
            <mxPoint x="624" y="564" as="targetPoint" />
          </mxGeometry>
        </mxCell>
        <mxCell id="RnOvtaYWMJXEQZg84aH6-21" value="&lt;font color=&quot;#000000&quot;&gt;Cleaned&lt;br&gt;Transformed&amp;nbsp;&lt;br&gt;Bucket&lt;br&gt;&lt;/font&gt;" style="sketch=0;points=[[0,0,0],[0.25,0,0],[0.5,0,0],[0.75,0,0],[1,0,0],[0,1,0],[0.25,1,0],[0.5,1,0],[0.75,1,0],[1,1,0],[0,0.25,0],[0,0.5,0],[0,0.75,0],[1,0.25,0],[1,0.5,0],[1,0.75,0]];outlineConnect=0;fontColor=#232F3E;gradientColor=#60A337;gradientDirection=north;fillColor=#277116;strokeColor=#ffffff;dashed=0;verticalLabelPosition=bottom;verticalAlign=top;align=center;html=1;fontSize=12;fontStyle=0;aspect=fixed;shape=mxgraph.aws4.resourceIcon;resIcon=mxgraph.aws4.s3;" parent="RnOvtaYWMJXEQZg84aH6-1" vertex="1">
          <mxGeometry x="493" y="539" width="50" height="50" as="geometry" />
        </mxCell>
        <mxCell id="RnOvtaYWMJXEQZg84aH6-22" value="&lt;font color=&quot;#000000&quot;&gt;Intermediate &lt;br&gt;State&lt;/font&gt;" style="sketch=0;points=[[0,0,0],[0.25,0,0],[0.5,0,0],[0.75,0,0],[1,0,0],[0,1,0],[0.25,1,0],[0.5,1,0],[0.75,1,0],[1,1,0],[0,0.25,0],[0,0.5,0],[0,0.75,0],[1,0.25,0],[1,0.5,0],[1,0.75,0]];outlineConnect=0;fontColor=#232F3E;gradientColor=#60A337;gradientDirection=north;fillColor=#277116;strokeColor=#ffffff;dashed=0;verticalLabelPosition=bottom;verticalAlign=top;align=center;html=1;fontSize=12;fontStyle=0;aspect=fixed;shape=mxgraph.aws4.resourceIcon;resIcon=mxgraph.aws4.s3;" parent="RnOvtaYWMJXEQZg84aH6-1" vertex="1">
          <mxGeometry x="650" y="375" width="50" height="50" as="geometry" />
        </mxCell>
        <mxCell id="RnOvtaYWMJXEQZg84aH6-23" value="" style="sketch=0;outlineConnect=0;fontColor=#232F3E;gradientColor=none;fillColor=#067F68;strokeColor=none;dashed=0;verticalLabelPosition=bottom;verticalAlign=top;align=center;html=1;fontSize=12;fontStyle=0;aspect=fixed;shape=mxgraph.aws4.transfer_for_ftp_resource;" parent="RnOvtaYWMJXEQZg84aH6-1" vertex="1">
          <mxGeometry x="132" y="332" width="50" height="51.32" as="geometry" />
        </mxCell>
        <mxCell id="RnOvtaYWMJXEQZg84aH6-24" value="" style="sketch=0;pointerEvents=1;shadow=0;dashed=0;html=1;strokeColor=none;fillColor=#DF8C42;labelPosition=center;verticalLabelPosition=bottom;verticalAlign=top;align=center;outlineConnect=0;shape=mxgraph.veeam2.restful_api;" parent="RnOvtaYWMJXEQZg84aH6-1" vertex="1">
          <mxGeometry x="140" y="396" width="34" height="34" as="geometry" />
        </mxCell>
        <mxCell id="RnOvtaYWMJXEQZg84aH6-25" value="" style="shape=datastore;whiteSpace=wrap;html=1;dashed=1;" parent="RnOvtaYWMJXEQZg84aH6-1" vertex="1">
          <mxGeometry x="136" y="436" width="42" height="40" as="geometry" />
        </mxCell>
        <mxCell id="RnOvtaYWMJXEQZg84aH6-26" value="" style="edgeStyle=orthogonalEdgeStyle;rounded=0;orthogonalLoop=1;jettySize=auto;html=1;" parent="RnOvtaYWMJXEQZg84aH6-1" target="RnOvtaYWMJXEQZg84aH6-27" edge="1">
          <mxGeometry relative="1" as="geometry">
            <mxPoint x="684" y="564" as="sourcePoint" />
          </mxGeometry>
        </mxCell>
        <mxCell id="RnOvtaYWMJXEQZg84aH6-27" value="&lt;font color=&quot;#000000&quot;&gt;Segmentation&amp;nbsp;Output&lt;br&gt;&lt;/font&gt;" style="sketch=0;points=[[0,0,0],[0.25,0,0],[0.5,0,0],[0.75,0,0],[1,0,0],[0,1,0],[0.25,1,0],[0.5,1,0],[0.75,1,0],[1,1,0],[0,0.25,0],[0,0.5,0],[0,0.75,0],[1,0.25,0],[1,0.5,0],[1,0.75,0]];outlineConnect=0;fontColor=#232F3E;gradientColor=#60A337;gradientDirection=north;fillColor=#277116;strokeColor=#ffffff;dashed=0;verticalLabelPosition=bottom;verticalAlign=top;align=center;html=1;fontSize=12;fontStyle=0;aspect=fixed;shape=mxgraph.aws4.resourceIcon;resIcon=mxgraph.aws4.s3;" parent="RnOvtaYWMJXEQZg84aH6-1" vertex="1">
          <mxGeometry x="772" y="539" width="50" height="50" as="geometry" />
        </mxCell>
        <mxCell id="RnOvtaYWMJXEQZg84aH6-28" value="Analysis Output &lt;br&gt;API" style="sketch=0;points=[[0,0,0],[0.25,0,0],[0.5,0,0],[0.75,0,0],[1,0,0],[0,1,0],[0.25,1,0],[0.5,1,0],[0.75,1,0],[1,1,0],[0,0.25,0],[0,0.5,0],[0,0.75,0],[1,0.25,0],[1,0.5,0],[1,0.75,0]];outlineConnect=0;fontColor=#232F3E;gradientColor=#FF4F8B;gradientDirection=north;fillColor=#BC1356;strokeColor=#ffffff;dashed=0;verticalLabelPosition=bottom;verticalAlign=top;align=center;html=1;fontSize=12;fontStyle=0;aspect=fixed;shape=mxgraph.aws4.resourceIcon;resIcon=mxgraph.aws4.api_gateway;" parent="RnOvtaYWMJXEQZg84aH6-1" vertex="1">
          <mxGeometry x="899" y="269" width="50" height="50" as="geometry" />
        </mxCell>
        <mxCell id="RnOvtaYWMJXEQZg84aH6-29" style="edgeStyle=orthogonalEdgeStyle;rounded=0;orthogonalLoop=1;jettySize=auto;html=1;entryX=0.5;entryY=0;entryDx=0;entryDy=0;entryPerimeter=0;" parent="RnOvtaYWMJXEQZg84aH6-1" source="RnOvtaYWMJXEQZg84aH6-31" target="RnOvtaYWMJXEQZg84aH6-27" edge="1">
          <mxGeometry relative="1" as="geometry" />
        </mxCell>
        <mxCell id="RnOvtaYWMJXEQZg84aH6-30" value="" style="edgeStyle=orthogonalEdgeStyle;rounded=0;orthogonalLoop=1;jettySize=auto;html=1;" parent="RnOvtaYWMJXEQZg84aH6-1" source="RnOvtaYWMJXEQZg84aH6-31" target="RnOvtaYWMJXEQZg84aH6-28" edge="1">
          <mxGeometry relative="1" as="geometry" />
        </mxCell>
        <mxCell id="RnOvtaYWMJXEQZg84aH6-31" value="Segmentation&lt;br&gt;Service" style="sketch=0;points=[[0,0,0],[0.25,0,0],[0.5,0,0],[0.75,0,0],[1,0,0],[0,1,0],[0.25,1,0],[0.5,1,0],[0.75,1,0],[1,1,0],[0,0.25,0],[0,0.5,0],[0,0.75,0],[1,0.25,0],[1,0.5,0],[1,0.75,0]];outlineConnect=0;fontColor=#232F3E;gradientColor=#F78E04;gradientDirection=north;fillColor=#D05C17;strokeColor=#ffffff;dashed=0;verticalLabelPosition=bottom;verticalAlign=top;align=center;html=1;fontSize=12;fontStyle=0;aspect=fixed;shape=mxgraph.aws4.resourceIcon;resIcon=mxgraph.aws4.lambda;" parent="RnOvtaYWMJXEQZg84aH6-1" vertex="1">
          <mxGeometry x="772" y="269" width="50" height="50" as="geometry" />
        </mxCell>
        <mxCell id="RnOvtaYWMJXEQZg84aH6-32" value="Glue Job" style="sketch=0;points=[[0,0,0],[0.25,0,0],[0.5,0,0],[0.75,0,0],[1,0,0],[0,1,0],[0.25,1,0],[0.5,1,0],[0.75,1,0],[1,1,0],[0,0.25,0],[0,0.5,0],[0,0.75,0],[1,0.25,0],[1,0.5,0],[1,0.75,0]];outlineConnect=0;fontColor=#232F3E;gradientColor=#945DF2;gradientDirection=north;fillColor=#5A30B5;strokeColor=#ffffff;dashed=0;verticalLabelPosition=bottom;verticalAlign=top;align=center;html=1;fontSize=12;fontStyle=0;aspect=fixed;shape=mxgraph.aws4.resourceIcon;resIcon=mxgraph.aws4.glue;" parent="RnOvtaYWMJXEQZg84aH6-1" vertex="1">
          <mxGeometry x="359" y="280" width="50" height="50" as="geometry" />
        </mxCell>
        <mxCell id="RnOvtaYWMJXEQZg84aH6-33" value="Glue Job" style="sketch=0;points=[[0,0,0],[0.25,0,0],[0.5,0,0],[0.75,0,0],[1,0,0],[0,1,0],[0.25,1,0],[0.5,1,0],[0.75,1,0],[1,1,0],[0,0.25,0],[0,0.5,0],[0,0.75,0],[1,0.25,0],[1,0.5,0],[1,0.75,0]];outlineConnect=0;fontColor=#232F3E;gradientColor=#945DF2;gradientDirection=north;fillColor=#5A30B5;strokeColor=#ffffff;dashed=0;verticalLabelPosition=bottom;verticalAlign=top;align=center;html=1;fontSize=12;fontStyle=0;aspect=fixed;shape=mxgraph.aws4.resourceIcon;resIcon=mxgraph.aws4.glue;" parent="RnOvtaYWMJXEQZg84aH6-1" vertex="1">
          <mxGeometry x="441" y="279" width="50" height="50" as="geometry" />
        </mxCell>
        <mxCell id="RnOvtaYWMJXEQZg84aH6-34" value="Glue Job" style="sketch=0;points=[[0,0,0],[0.25,0,0],[0.5,0,0],[0.75,0,0],[1,0,0],[0,1,0],[0.25,1,0],[0.5,1,0],[0.75,1,0],[1,1,0],[0,0.25,0],[0,0.5,0],[0,0.75,0],[1,0.25,0],[1,0.5,0],[1,0.75,0]];outlineConnect=0;fontColor=#232F3E;gradientColor=#945DF2;gradientDirection=north;fillColor=#5A30B5;strokeColor=#ffffff;dashed=0;verticalLabelPosition=bottom;verticalAlign=top;align=center;html=1;fontSize=12;fontStyle=0;aspect=fixed;shape=mxgraph.aws4.resourceIcon;resIcon=mxgraph.aws4.glue;" parent="RnOvtaYWMJXEQZg84aH6-1" vertex="1">
          <mxGeometry x="525" y="279" width="50" height="50" as="geometry" />
        </mxCell>
        <mxCell id="RnOvtaYWMJXEQZg84aH6-35" value="Glue Job" style="sketch=0;points=[[0,0,0],[0.25,0,0],[0.5,0,0],[0.75,0,0],[1,0,0],[0,1,0],[0.25,1,0],[0.5,1,0],[0.75,1,0],[1,1,0],[0,0.25,0],[0,0.5,0],[0,0.75,0],[1,0.25,0],[1,0.5,0],[1,0.75,0]];outlineConnect=0;fontColor=#232F3E;gradientColor=#945DF2;gradientDirection=north;fillColor=#5A30B5;strokeColor=#ffffff;dashed=0;verticalLabelPosition=bottom;verticalAlign=top;align=center;html=1;fontSize=12;fontStyle=0;aspect=fixed;shape=mxgraph.aws4.resourceIcon;resIcon=mxgraph.aws4.glue;" parent="RnOvtaYWMJXEQZg84aH6-1" vertex="1">
          <mxGeometry x="609" y="277" width="50" height="50" as="geometry" />
        </mxCell>
        <mxCell id="RnOvtaYWMJXEQZg84aH6-36" value="Glue Job" style="sketch=0;points=[[0,0,0],[0.25,0,0],[0.5,0,0],[0.75,0,0],[1,0,0],[0,1,0],[0.25,1,0],[0.5,1,0],[0.75,1,0],[1,1,0],[0,0.25,0],[0,0.5,0],[0,0.75,0],[1,0.25,0],[1,0.5,0],[1,0.75,0]];outlineConnect=0;fontColor=#232F3E;gradientColor=#945DF2;gradientDirection=north;fillColor=#5A30B5;strokeColor=#ffffff;dashed=0;verticalLabelPosition=bottom;verticalAlign=top;align=center;html=1;fontSize=12;fontStyle=0;aspect=fixed;shape=mxgraph.aws4.resourceIcon;resIcon=mxgraph.aws4.glue;" parent="RnOvtaYWMJXEQZg84aH6-1" vertex="1">
          <mxGeometry x="629" y="536" width="50" height="50" as="geometry" />
        </mxCell>
      </root>
    </mxGraphModel>
  </diagram>
  <diagram id="OT29ojblEex2WzoQCmBL" name="Page-4">
    <mxGraphModel dx="1384" dy="641" grid="1" gridSize="10" guides="1" tooltips="1" connect="1" arrows="1" fold="1" page="1" pageScale="1" pageWidth="1100" pageHeight="850" math="0" shadow="0">
      <root>
        <mxCell id="0" />
        <mxCell id="1" parent="0" />
        <mxCell id="jJ-eeVPNk-OqBmWWNnjz-27" value="&lt;br&gt;&lt;br&gt;&lt;br&gt;&lt;br&gt;&lt;br&gt;&lt;br&gt;Devops" style="whiteSpace=wrap;html=1;dashed=1;" vertex="1" parent="1">
          <mxGeometry x="181" y="734" width="649" height="106" as="geometry" />
        </mxCell>
        <mxCell id="jJ-eeVPNk-OqBmWWNnjz-25" value="&lt;br&gt;&lt;br&gt;&lt;br&gt;&lt;br&gt;&lt;br&gt;Apps" style="whiteSpace=wrap;html=1;dashed=1;" vertex="1" parent="1">
          <mxGeometry x="179" y="25" width="651" height="100" as="geometry" />
        </mxCell>
        <mxCell id="jJ-eeVPNk-OqBmWWNnjz-16" value="" style="whiteSpace=wrap;html=1;dashed=1;" vertex="1" parent="1">
          <mxGeometry x="40" y="185" width="120" height="170" as="geometry" />
        </mxCell>
        <mxCell id="iQwb8FN9Gf8Ln2Ek4FzE-4" value="&lt;br&gt;&lt;br&gt;&lt;br&gt;&lt;br&gt;&lt;br&gt;&lt;br&gt;&lt;br&gt;&lt;br&gt;&lt;br&gt;&lt;br&gt;&lt;br&gt;&lt;br&gt;&lt;br&gt;&lt;br&gt;&lt;br&gt;&lt;br&gt;&lt;br&gt;Service Layer" style="whiteSpace=wrap;html=1;dashed=1;" vertex="1" parent="1">
          <mxGeometry x="180" y="335" width="650" height="260" as="geometry" />
        </mxCell>
        <mxCell id="iQwb8FN9Gf8Ln2Ek4FzE-6" value="" style="sketch=0;pointerEvents=1;shadow=0;dashed=0;html=1;strokeColor=none;labelPosition=center;verticalLabelPosition=bottom;verticalAlign=top;align=center;fillColor=#505050;shape=mxgraph.mscae.intune.company_portal" vertex="1" parent="1">
          <mxGeometry x="561.5" y="42" width="69" height="59" as="geometry" />
        </mxCell>
        <mxCell id="iQwb8FN9Gf8Ln2Ek4FzE-8" value="Cloudfront" style="sketch=0;points=[[0,0,0],[0.25,0,0],[0.5,0,0],[0.75,0,0],[1,0,0],[0,1,0],[0.25,1,0],[0.5,1,0],[0.75,1,0],[1,1,0],[0,0.25,0],[0,0.5,0],[0,0.75,0],[1,0.25,0],[1,0.5,0],[1,0.75,0]];outlineConnect=0;fontColor=#232F3E;gradientColor=#945DF2;gradientDirection=north;fillColor=#5A30B5;strokeColor=#ffffff;dashed=0;verticalLabelPosition=bottom;verticalAlign=top;align=center;html=1;fontSize=12;fontStyle=0;aspect=fixed;shape=mxgraph.aws4.resourceIcon;resIcon=mxgraph.aws4.cloudfront;" vertex="1" parent="1">
          <mxGeometry x="79" y="190" width="50" height="50" as="geometry" />
        </mxCell>
        <mxCell id="iQwb8FN9Gf8Ln2Ek4FzE-9" value="Profile Service" style="sketch=0;points=[[0,0,0],[0.25,0,0],[0.5,0,0],[0.75,0,0],[1,0,0],[0,1,0],[0.25,1,0],[0.5,1,0],[0.75,1,0],[1,1,0],[0,0.25,0],[0,0.5,0],[0,0.75,0],[1,0.25,0],[1,0.5,0],[1,0.75,0]];outlineConnect=0;fontColor=#232F3E;gradientColor=#F78E04;gradientDirection=north;fillColor=#D05C17;strokeColor=#ffffff;dashed=0;verticalLabelPosition=bottom;verticalAlign=top;align=center;html=1;fontSize=12;fontStyle=0;aspect=fixed;shape=mxgraph.aws4.resourceIcon;resIcon=mxgraph.aws4.lambda;" vertex="1" parent="1">
          <mxGeometry x="234" y="364" width="50" height="50" as="geometry" />
        </mxCell>
        <mxCell id="iQwb8FN9Gf8Ln2Ek4FzE-10" value="Event Service" style="sketch=0;points=[[0,0,0],[0.25,0,0],[0.5,0,0],[0.75,0,0],[1,0,0],[0,1,0],[0.25,1,0],[0.5,1,0],[0.75,1,0],[1,1,0],[0,0.25,0],[0,0.5,0],[0,0.75,0],[1,0.25,0],[1,0.5,0],[1,0.75,0]];outlineConnect=0;fontColor=#232F3E;gradientColor=#F78E04;gradientDirection=north;fillColor=#D05C17;strokeColor=#ffffff;dashed=0;verticalLabelPosition=bottom;verticalAlign=top;align=center;html=1;fontSize=12;fontStyle=0;aspect=fixed;shape=mxgraph.aws4.resourceIcon;resIcon=mxgraph.aws4.lambda;" vertex="1" parent="1">
          <mxGeometry x="327" y="364" width="50" height="50" as="geometry" />
        </mxCell>
        <mxCell id="iQwb8FN9Gf8Ln2Ek4FzE-14" value="Matching Engine" style="sketch=0;points=[[0,0,0],[0.25,0,0],[0.5,0,0],[0.75,0,0],[1,0,0],[0,1,0],[0.25,1,0],[0.5,1,0],[0.75,1,0],[1,1,0],[0,0.25,0],[0,0.5,0],[0,0.75,0],[1,0.25,0],[1,0.5,0],[1,0.75,0]];outlineConnect=0;fontColor=#232F3E;gradientColor=#F78E04;gradientDirection=north;fillColor=#D05C17;strokeColor=#ffffff;dashed=0;verticalLabelPosition=bottom;verticalAlign=top;align=center;html=1;fontSize=12;fontStyle=0;aspect=fixed;shape=mxgraph.aws4.resourceIcon;resIcon=mxgraph.aws4.lambda;" vertex="1" parent="1">
          <mxGeometry x="490" y="500" width="50" height="50" as="geometry" />
        </mxCell>
        <mxCell id="iQwb8FN9Gf8Ln2Ek4FzE-18" value="&lt;font color=&quot;#000000&quot;&gt;Web Hosting&lt;/font&gt;" style="sketch=0;points=[[0,0,0],[0.25,0,0],[0.5,0,0],[0.75,0,0],[1,0,0],[0,1,0],[0.25,1,0],[0.5,1,0],[0.75,1,0],[1,1,0],[0,0.25,0],[0,0.5,0],[0,0.75,0],[1,0.25,0],[1,0.5,0],[1,0.75,0]];outlineConnect=0;fontColor=#232F3E;gradientColor=#60A337;gradientDirection=north;fillColor=#277116;strokeColor=#ffffff;dashed=0;verticalLabelPosition=bottom;verticalAlign=top;align=center;html=1;fontSize=12;fontStyle=0;aspect=fixed;shape=mxgraph.aws4.resourceIcon;resIcon=mxgraph.aws4.s3;" vertex="1" parent="1">
          <mxGeometry x="80" y="275" width="50" height="50" as="geometry" />
        </mxCell>
        <mxCell id="iQwb8FN9Gf8Ln2Ek4FzE-37" value="" style="sketch=0;points=[[0,0,0],[0.25,0,0],[0.5,0,0],[0.75,0,0],[1,0,0],[0,1,0],[0.25,1,0],[0.5,1,0],[0.75,1,0],[1,1,0],[0,0.25,0],[0,0.5,0],[0,0.75,0],[1,0.25,0],[1,0.5,0],[1,0.75,0]];outlineConnect=0;fontColor=#232F3E;gradientColor=#945DF2;gradientDirection=north;fillColor=#5A30B5;strokeColor=#ffffff;dashed=0;verticalLabelPosition=bottom;verticalAlign=top;align=center;html=1;fontSize=12;fontStyle=0;aspect=fixed;shape=mxgraph.aws4.resourceIcon;resIcon=mxgraph.aws4.serverless;" vertex="1" parent="1">
          <mxGeometry x="790" y="315" width="50" height="50" as="geometry" />
        </mxCell>
        <mxCell id="iQwb8FN9Gf8Ln2Ek4FzE-49" value="&lt;br&gt;&lt;br&gt;&lt;br&gt;&lt;br&gt;&lt;br&gt;&lt;br&gt;&lt;br&gt;Experience Layer" style="whiteSpace=wrap;html=1;dashed=1;" vertex="1" parent="1">
          <mxGeometry x="182" y="175" width="648" height="119" as="geometry" />
        </mxCell>
        <mxCell id="iQwb8FN9Gf8Ln2Ek4FzE-38" value="" style="sketch=0;points=[[0,0,0],[0.25,0,0],[0.5,0,0],[0.75,0,0],[1,0,0],[0,1,0],[0.25,1,0],[0.5,1,0],[0.75,1,0],[1,1,0],[0,0.25,0],[0,0.5,0],[0,0.75,0],[1,0.25,0],[1,0.5,0],[1,0.75,0]];outlineConnect=0;fontColor=#232F3E;gradientColor=#FF4F8B;gradientDirection=north;fillColor=#BC1356;strokeColor=#ffffff;dashed=0;verticalLabelPosition=bottom;verticalAlign=top;align=center;html=1;fontSize=12;fontStyle=0;aspect=fixed;shape=mxgraph.aws4.resourceIcon;resIcon=mxgraph.aws4.api_gateway;" vertex="1" parent="1">
          <mxGeometry x="800" y="153" width="52" height="52" as="geometry" />
        </mxCell>
        <mxCell id="iQwb8FN9Gf8Ln2Ek4FzE-42" value="" style="html=1;verticalLabelPosition=bottom;align=center;labelBackgroundColor=#ffffff;verticalAlign=top;strokeWidth=2;strokeColor=#0080F0;shadow=0;dashed=0;shape=mxgraph.ios7.icons.smartphone;" vertex="1" parent="1">
          <mxGeometry x="388" y="45" width="30" height="52" as="geometry" />
        </mxCell>
        <mxCell id="iQwb8FN9Gf8Ln2Ek4FzE-43" value="" style="shape=image;html=1;verticalAlign=top;verticalLabelPosition=bottom;labelBackgroundColor=#ffffff;imageAspect=0;aspect=fixed;image=https://cdn1.iconfinder.com/data/icons/unicons-line-vol-5/24/react-128.png" vertex="1" parent="1">
          <mxGeometry x="804" y="9" width="36" height="36" as="geometry" />
        </mxCell>
        <mxCell id="iQwb8FN9Gf8Ln2Ek4FzE-51" value="Profile" style="sketch=0;pointerEvents=1;shadow=0;dashed=0;html=1;strokeColor=none;fillColor=#DF8C42;labelPosition=center;verticalLabelPosition=bottom;verticalAlign=top;align=center;outlineConnect=0;shape=mxgraph.veeam2.restful_api;" vertex="1" parent="1">
          <mxGeometry x="216" y="204" width="56" height="50" as="geometry" />
        </mxCell>
        <mxCell id="iQwb8FN9Gf8Ln2Ek4FzE-52" value="Events" style="sketch=0;pointerEvents=1;shadow=0;dashed=0;html=1;strokeColor=none;fillColor=#DF8C42;labelPosition=center;verticalLabelPosition=bottom;verticalAlign=top;align=center;outlineConnect=0;shape=mxgraph.veeam2.restful_api;" vertex="1" parent="1">
          <mxGeometry x="298" y="204" width="56" height="50" as="geometry" />
        </mxCell>
        <mxCell id="iQwb8FN9Gf8Ln2Ek4FzE-53" value="Deal" style="sketch=0;pointerEvents=1;shadow=0;dashed=0;html=1;strokeColor=none;fillColor=#DF8C42;labelPosition=center;verticalLabelPosition=bottom;verticalAlign=top;align=center;outlineConnect=0;shape=mxgraph.veeam2.restful_api;" vertex="1" parent="1">
          <mxGeometry x="382" y="204" width="56" height="50" as="geometry" />
        </mxCell>
        <mxCell id="iQwb8FN9Gf8Ln2Ek4FzE-54" value="Membership" style="sketch=0;pointerEvents=1;shadow=0;dashed=0;html=1;strokeColor=none;fillColor=#DF8C42;labelPosition=center;verticalLabelPosition=bottom;verticalAlign=top;align=center;outlineConnect=0;shape=mxgraph.veeam2.restful_api;" vertex="1" parent="1">
          <mxGeometry x="467" y="205" width="56" height="50" as="geometry" />
        </mxCell>
        <mxCell id="iQwb8FN9Gf8Ln2Ek4FzE-55" value="" style="outlineConnect=0;dashed=0;verticalLabelPosition=bottom;verticalAlign=top;align=center;html=1;shape=mxgraph.aws3.dynamo_db;fillColor=#2E73B8;gradientColor=none;" vertex="1" parent="1">
          <mxGeometry x="235" y="438" width="48" height="46" as="geometry" />
        </mxCell>
        <mxCell id="iQwb8FN9Gf8Ln2Ek4FzE-56" value="Matching" style="sketch=0;pointerEvents=1;shadow=0;dashed=0;html=1;strokeColor=none;fillColor=#DF8C42;labelPosition=center;verticalLabelPosition=bottom;verticalAlign=top;align=center;outlineConnect=0;shape=mxgraph.veeam2.restful_api;" vertex="1" parent="1">
          <mxGeometry x="552.75" y="205" width="56" height="50" as="geometry" />
        </mxCell>
        <mxCell id="iQwb8FN9Gf8Ln2Ek4FzE-57" value="" style="outlineConnect=0;dashed=0;verticalLabelPosition=bottom;verticalAlign=top;align=center;html=1;shape=mxgraph.aws3.dynamo_db;fillColor=#2E73B8;gradientColor=none;" vertex="1" parent="1">
          <mxGeometry x="327" y="438" width="48" height="46" as="geometry" />
        </mxCell>
        <mxCell id="jJ-eeVPNk-OqBmWWNnjz-1" value="Content" style="sketch=0;pointerEvents=1;shadow=0;dashed=0;html=1;strokeColor=none;fillColor=#DF8C42;labelPosition=center;verticalLabelPosition=bottom;verticalAlign=top;align=center;outlineConnect=0;shape=mxgraph.veeam2.restful_api;" vertex="1" parent="1">
          <mxGeometry x="645" y="205" width="56" height="50" as="geometry" />
        </mxCell>
        <mxCell id="jJ-eeVPNk-OqBmWWNnjz-2" value="&lt;br&gt;&lt;br&gt;&lt;br&gt;&lt;br&gt;&lt;br&gt;&lt;br&gt;Integration/Worflow/Storage Layer" style="whiteSpace=wrap;html=1;dashed=1;" vertex="1" parent="1">
          <mxGeometry x="180" y="614" width="650" height="106" as="geometry" />
        </mxCell>
        <mxCell id="jJ-eeVPNk-OqBmWWNnjz-3" value="SQS" style="sketch=0;points=[[0,0,0],[0.25,0,0],[0.5,0,0],[0.75,0,0],[1,0,0],[0,1,0],[0.25,1,0],[0.5,1,0],[0.75,1,0],[1,1,0],[0,0.25,0],[0,0.5,0],[0,0.75,0],[1,0.25,0],[1,0.5,0],[1,0.75,0]];outlineConnect=0;fontColor=#232F3E;gradientColor=#FF4F8B;gradientDirection=north;fillColor=#BC1356;strokeColor=#ffffff;dashed=0;verticalLabelPosition=bottom;verticalAlign=top;align=center;html=1;fontSize=12;fontStyle=0;aspect=fixed;shape=mxgraph.aws4.resourceIcon;resIcon=mxgraph.aws4.sqs;" vertex="1" parent="1">
          <mxGeometry x="289" y="634.5" width="46" height="46" as="geometry" />
        </mxCell>
        <mxCell id="jJ-eeVPNk-OqBmWWNnjz-4" value="" style="whiteSpace=wrap;html=1;dashed=1;" vertex="1" parent="1">
          <mxGeometry x="880" y="175" width="102" height="545" as="geometry" />
        </mxCell>
        <mxCell id="jJ-eeVPNk-OqBmWWNnjz-5" value="" style="strokeColor=#dddddd;shadow=1;strokeWidth=1;rounded=1;absoluteArcSize=1;arcSize=2;" vertex="1" parent="1">
          <mxGeometry x="875.13" y="25" width="110" height="60" as="geometry" />
        </mxCell>
        <mxCell id="jJ-eeVPNk-OqBmWWNnjz-6" value="Google&#xa;Analytics" style="sketch=0;dashed=0;connectable=0;html=1;fillColor=#5184F3;strokeColor=none;shape=mxgraph.gcp2.google_analytics;part=1;labelPosition=right;verticalLabelPosition=middle;align=left;verticalAlign=middle;spacingLeft=5;fontColor=#999999;fontSize=12;" vertex="1" parent="jJ-eeVPNk-OqBmWWNnjz-5">
          <mxGeometry width="45" height="45" relative="1" as="geometry">
            <mxPoint x="5" y="7" as="offset" />
          </mxGeometry>
        </mxCell>
        <mxCell id="jJ-eeVPNk-OqBmWWNnjz-7" value="" style="outlineConnect=0;dashed=0;verticalLabelPosition=bottom;verticalAlign=top;align=center;html=1;shape=mxgraph.aws3.route_53;fillColor=#F58536;gradientColor=none;" vertex="1" parent="1">
          <mxGeometry x="129" y="145" width="50" height="50" as="geometry" />
        </mxCell>
        <mxCell id="jJ-eeVPNk-OqBmWWNnjz-9" value="Cognito" style="outlineConnect=0;dashed=0;verticalLabelPosition=bottom;verticalAlign=top;align=center;html=1;shape=mxgraph.aws3.cognito;fillColor=#AD688B;gradientColor=none;" vertex="1" parent="1">
          <mxGeometry x="628" y="434" width="50" height="50" as="geometry" />
        </mxCell>
        <mxCell id="jJ-eeVPNk-OqBmWWNnjz-10" value="Cloudwatch" style="outlineConnect=0;dashed=0;verticalLabelPosition=bottom;verticalAlign=top;align=center;html=1;shape=mxgraph.aws3.cloudwatch;fillColor=#759C3E;gradientColor=none;" vertex="1" parent="1">
          <mxGeometry x="897.5" y="414" width="67" height="60" as="geometry" />
        </mxCell>
        <mxCell id="jJ-eeVPNk-OqBmWWNnjz-11" value="IAM" style="outlineConnect=0;dashed=0;verticalLabelPosition=bottom;verticalAlign=top;align=center;html=1;shape=mxgraph.aws3.iam;fillColor=#759C3E;gradientColor=none;" vertex="1" parent="1">
          <mxGeometry x="913.75" y="520" width="34.5" height="67" as="geometry" />
        </mxCell>
        <mxCell id="jJ-eeVPNk-OqBmWWNnjz-12" value="KMS" style="outlineConnect=0;dashed=0;verticalLabelPosition=bottom;verticalAlign=top;align=center;html=1;shape=mxgraph.aws3.kms;fillColor=#759C3E;gradientColor=none;" vertex="1" parent="1">
          <mxGeometry x="897.5" y="623" width="65.25" height="60" as="geometry" />
        </mxCell>
        <mxCell id="jJ-eeVPNk-OqBmWWNnjz-13" value="Step Functions" style="sketch=0;points=[[0,0,0],[0.25,0,0],[0.5,0,0],[0.75,0,0],[1,0,0],[0,1,0],[0.25,1,0],[0.5,1,0],[0.75,1,0],[1,1,0],[0,0.25,0],[0,0.5,0],[0,0.75,0],[1,0.25,0],[1,0.5,0],[1,0.75,0]];outlineConnect=0;fontColor=#232F3E;gradientColor=#FF4F8B;gradientDirection=north;fillColor=#BC1356;strokeColor=#ffffff;dashed=0;verticalLabelPosition=bottom;verticalAlign=top;align=center;html=1;fontSize=12;fontStyle=0;aspect=fixed;shape=mxgraph.aws4.resourceIcon;resIcon=mxgraph.aws4.step_functions;" vertex="1" parent="1">
          <mxGeometry x="490" y="633" width="40" height="40" as="geometry" />
        </mxCell>
        <mxCell id="jJ-eeVPNk-OqBmWWNnjz-14" value="S3" style="sketch=0;points=[[0,0,0],[0.25,0,0],[0.5,0,0],[0.75,0,0],[1,0,0],[0,1,0],[0.25,1,0],[0.5,1,0],[0.75,1,0],[1,1,0],[0,0.25,0],[0,0.5,0],[0,0.75,0],[1,0.25,0],[1,0.5,0],[1,0.75,0]];outlineConnect=0;fontColor=#232F3E;gradientColor=#60A337;gradientDirection=north;fillColor=#277116;strokeColor=#ffffff;dashed=0;verticalLabelPosition=bottom;verticalAlign=top;align=center;html=1;fontSize=12;fontStyle=0;aspect=fixed;shape=mxgraph.aws4.resourceIcon;resIcon=mxgraph.aws4.s3;" vertex="1" parent="1">
          <mxGeometry x="656" y="635.5" width="45" height="45" as="geometry" />
        </mxCell>
        <mxCell id="jJ-eeVPNk-OqBmWWNnjz-15" value="Cloudtrail" style="outlineConnect=0;dashed=0;verticalLabelPosition=bottom;verticalAlign=top;align=center;html=1;shape=mxgraph.aws3.cloudtrail;fillColor=#759C3E;gradientColor=none;" vertex="1" parent="1">
          <mxGeometry x="901.5" y="310" width="50" height="60" as="geometry" />
        </mxCell>
        <mxCell id="jJ-eeVPNk-OqBmWWNnjz-17" value="Cloudformation" style="outlineConnect=0;dashed=0;verticalLabelPosition=bottom;verticalAlign=top;align=center;html=1;shape=mxgraph.aws3.cloudformation;fillColor=#759C3E;gradientColor=none;" vertex="1" parent="1">
          <mxGeometry x="692.5" y="749" width="50" height="55" as="geometry" />
        </mxCell>
        <mxCell id="jJ-eeVPNk-OqBmWWNnjz-18" value="Deal Service" style="sketch=0;points=[[0,0,0],[0.25,0,0],[0.5,0,0],[0.75,0,0],[1,0,0],[0,1,0],[0.25,1,0],[0.5,1,0],[0.75,1,0],[1,1,0],[0,0.25,0],[0,0.5,0],[0,0.75,0],[1,0.25,0],[1,0.5,0],[1,0.75,0]];outlineConnect=0;fontColor=#232F3E;gradientColor=#F78E04;gradientDirection=north;fillColor=#D05C17;strokeColor=#ffffff;dashed=0;verticalLabelPosition=bottom;verticalAlign=top;align=center;html=1;fontSize=12;fontStyle=0;aspect=fixed;shape=mxgraph.aws4.resourceIcon;resIcon=mxgraph.aws4.lambda;" vertex="1" parent="1">
          <mxGeometry x="424" y="364" width="50" height="50" as="geometry" />
        </mxCell>
        <mxCell id="jJ-eeVPNk-OqBmWWNnjz-19" value="" style="outlineConnect=0;dashed=0;verticalLabelPosition=bottom;verticalAlign=top;align=center;html=1;shape=mxgraph.aws3.dynamo_db;fillColor=#2E73B8;gradientColor=none;" vertex="1" parent="1">
          <mxGeometry x="426" y="439" width="48" height="46" as="geometry" />
        </mxCell>
        <mxCell id="jJ-eeVPNk-OqBmWWNnjz-23" value="Membership" style="sketch=0;points=[[0,0,0],[0.25,0,0],[0.5,0,0],[0.75,0,0],[1,0,0],[0,1,0],[0.25,1,0],[0.5,1,0],[0.75,1,0],[1,1,0],[0,0.25,0],[0,0.5,0],[0,0.75,0],[1,0.25,0],[1,0.5,0],[1,0.75,0]];outlineConnect=0;fontColor=#232F3E;gradientColor=#F78E04;gradientDirection=north;fillColor=#D05C17;strokeColor=#ffffff;dashed=0;verticalLabelPosition=bottom;verticalAlign=top;align=center;html=1;fontSize=12;fontStyle=0;aspect=fixed;shape=mxgraph.aws4.resourceIcon;resIcon=mxgraph.aws4.lambda;" vertex="1" parent="1">
          <mxGeometry x="528" y="364" width="50" height="50" as="geometry" />
        </mxCell>
        <mxCell id="jJ-eeVPNk-OqBmWWNnjz-24" value="" style="outlineConnect=0;dashed=0;verticalLabelPosition=bottom;verticalAlign=top;align=center;html=1;shape=mxgraph.aws3.dynamo_db;fillColor=#2E73B8;gradientColor=none;" vertex="1" parent="1">
          <mxGeometry x="528" y="439" width="48" height="46" as="geometry" />
        </mxCell>
        <mxCell id="jJ-eeVPNk-OqBmWWNnjz-26" value="Identity" style="sketch=0;points=[[0,0,0],[0.25,0,0],[0.5,0,0],[0.75,0,0],[1,0,0],[0,1,0],[0.25,1,0],[0.5,1,0],[0.75,1,0],[1,1,0],[0,0.25,0],[0,0.5,0],[0,0.75,0],[1,0.25,0],[1,0.5,0],[1,0.75,0]];outlineConnect=0;fontColor=#232F3E;gradientColor=#F78E04;gradientDirection=north;fillColor=#D05C17;strokeColor=#ffffff;dashed=0;verticalLabelPosition=bottom;verticalAlign=top;align=center;html=1;fontSize=12;fontStyle=0;aspect=fixed;shape=mxgraph.aws4.resourceIcon;resIcon=mxgraph.aws4.lambda;" vertex="1" parent="1">
          <mxGeometry x="628" y="363" width="50" height="50" as="geometry" />
        </mxCell>
        <mxCell id="jJ-eeVPNk-OqBmWWNnjz-29" value="Code" style="dashed=0;outlineConnect=0;html=1;align=center;labelPosition=center;verticalLabelPosition=bottom;verticalAlign=top;shape=mxgraph.weblogos.github" vertex="1" parent="1">
          <mxGeometry x="266.5" y="753" width="50" height="55" as="geometry" />
        </mxCell>
        <mxCell id="jJ-eeVPNk-OqBmWWNnjz-30" value="Pipeline" style="outlineConnect=0;dashed=0;verticalLabelPosition=bottom;verticalAlign=top;align=center;html=1;shape=mxgraph.aws3.codepipeline;fillColor=#759C3E;gradientColor=none;" vertex="1" parent="1">
          <mxGeometry x="556.5" y="754.5" width="48.5" height="49.5" as="geometry" />
        </mxCell>
        <mxCell id="jJ-eeVPNk-OqBmWWNnjz-31" value="Deploy" style="outlineConnect=0;dashed=0;verticalLabelPosition=bottom;verticalAlign=top;align=center;html=1;shape=mxgraph.aws3.codedeploy;fillColor=#759C3E;gradientColor=none;" vertex="1" parent="1">
          <mxGeometry x="392.5" y="754.5" width="50" height="52" as="geometry" />
        </mxCell>
        <mxCell id="jJ-eeVPNk-OqBmWWNnjz-32" value="CRM" style="strokeColor=#dddddd;shadow=1;strokeWidth=1;rounded=1;absoluteArcSize=1;arcSize=2;" vertex="1" parent="1">
          <mxGeometry x="876" y="101" width="110" height="39" as="geometry" />
        </mxCell>
        <mxCell id="jJ-eeVPNk-OqBmWWNnjz-34" value="Search" style="sketch=0;pointerEvents=1;shadow=0;dashed=0;html=1;strokeColor=none;fillColor=#DF8C42;labelPosition=center;verticalLabelPosition=bottom;verticalAlign=top;align=center;outlineConnect=0;shape=mxgraph.veeam2.restful_api;" vertex="1" parent="1">
          <mxGeometry x="730" y="205" width="56" height="50" as="geometry" />
        </mxCell>
        <mxCell id="jJ-eeVPNk-OqBmWWNnjz-36" value="Search Service" style="sketch=0;points=[[0,0,0],[0.25,0,0],[0.5,0,0],[0.75,0,0],[1,0,0],[0,1,0],[0.25,1,0],[0.5,1,0],[0.75,1,0],[1,1,0],[0,0.25,0],[0,0.5,0],[0,0.75,0],[1,0.25,0],[1,0.5,0],[1,0.75,0]];outlineConnect=0;fontColor=#232F3E;gradientColor=#F78E04;gradientDirection=north;fillColor=#D05C17;strokeColor=#ffffff;dashed=0;verticalLabelPosition=bottom;verticalAlign=top;align=center;html=1;fontSize=12;fontStyle=0;aspect=fixed;shape=mxgraph.aws4.resourceIcon;resIcon=mxgraph.aws4.lambda;" vertex="1" parent="1">
          <mxGeometry x="730" y="363" width="50" height="50" as="geometry" />
        </mxCell>
        <mxCell id="jJ-eeVPNk-OqBmWWNnjz-37" value="ElasticSearch" style="outlineConnect=0;dashed=0;verticalLabelPosition=bottom;verticalAlign=top;align=center;html=1;shape=mxgraph.aws3.elasticsearch_service;fillColor=#F58534;gradientColor=none;" vertex="1" parent="1">
          <mxGeometry x="732" y="438" width="48" height="52" as="geometry" />
        </mxCell>
      </root>
    </mxGraphModel>
  </diagram>
</mxfile>
